<?xml version="1.0" encoding="UTF-8"?>
<svg xmlns="http://www.w3.org/2000/svg" xmlns:xlink="http://www.w3.org/1999/xlink" width="47px" height="47px" viewBox="0 0 47 47" version="1.1">
<g id="surface1">
<path style=" stroke:none;fill-rule:nonzero;fill:rgb(14.901961%,65.098039%,81.960784%);fill-opacity:1;" d="M 2.9375 6.609375 L 44.0625 6.609375 C 45.683594 6.609375 47 7.925781 47 9.546875 L 47 37.453125 C 47 39.074219 45.683594 40.390625 44.0625 40.390625 L 2.9375 40.390625 C 1.316406 40.390625 0 39.074219 0 37.453125 L 0 9.546875 C 0 7.925781 1.316406 6.609375 2.9375 6.609375 Z M 2.9375 6.609375 "/>
<path style=" stroke:none;fill-rule:nonzero;fill:rgb(100%,100%,100%);fill-opacity:1;" d="M 7.578125 18.359375 L 2.9375 28.628906 L 8.492188 28.628906 L 9.183594 26.992188 L 10.757812 26.992188 L 11.445312 28.628906 L 17.5625 28.628906 L 17.5625 27.378906 L 18.105469 28.628906 L 21.269531 28.628906 L 21.816406 27.351562 L 21.816406 28.628906 L 34.535156 28.628906 L 36.082031 27.035156 L 37.53125 28.628906 L 44.0625 28.644531 L 39.40625 23.523438 L 44.0625 18.359375 L 37.632812 18.359375 L 36.125 19.925781 L 34.722656 18.359375 L 20.886719 18.359375 L 19.699219 21.007812 L 18.480469 18.359375 L 12.9375 18.359375 L 12.9375 19.566406 L 12.320312 18.359375 C 12.320312 18.359375 7.578125 18.359375 7.578125 18.359375 Z M 8.652344 19.816406 L 11.363281 19.816406 L 14.441406 26.78125 L 14.441406 19.816406 L 17.40625 19.816406 L 19.785156 24.8125 L 21.976562 19.816406 L 24.929688 19.816406 L 24.929688 27.1875 L 23.132812 27.1875 L 23.117188 21.414062 L 20.5 27.1875 L 18.890625 27.1875 L 16.257812 21.414062 L 16.257812 27.1875 L 12.5625 27.1875 L 11.863281 25.535156 L 8.078125 25.535156 L 7.378906 27.1875 L 5.398438 27.1875 C 5.398438 27.1875 8.652344 19.816406 8.652344 19.816406 Z M 26.574219 19.816406 L 33.875 19.816406 L 36.109375 22.230469 L 38.417969 19.816406 L 40.652344 19.816406 L 37.257812 23.519531 L 40.652344 27.183594 L 38.316406 27.183594 L 36.082031 24.742188 L 33.761719 27.183594 L 26.574219 27.183594 Z M 9.972656 21.0625 L 8.722656 24.007812 L 11.21875 24.007812 Z M 28.375 21.34375 L 28.375 22.6875 L 32.359375 22.6875 L 32.359375 24.1875 L 28.375 24.1875 L 28.375 25.65625 L 32.847656 25.65625 L 34.921875 23.492188 L 32.933594 21.34375 Z M 28.375 21.34375 "/>
</g>
</svg>
