<?xml version="1.0" encoding="UTF-8"?>
<svg xmlns="http://www.w3.org/2000/svg" xmlns:xlink="http://www.w3.org/1999/xlink" width="57px" height="47px" viewBox="0 0 57 47" version="1.1">
<defs>
<clipPath id="clip1">
  <path d="M 5 8 L 52 8 L 52 39 L 5 39 Z M 5 8 "/>
</clipPath>
<clipPath id="clip2">
  <path d="M 5.078125 11.015625 C 5.078125 9.804688 6.066406 8.8125 7.269531 8.8125 L 49.65625 8.8125 C 50.863281 8.8125 51.847656 9.804688 51.847656 11.015625 L 51.847656 35.984375 C 51.847656 37.195312 50.863281 38.1875 49.65625 38.1875 L 7.269531 38.1875 C 6.066406 38.1875 5.078125 37.195312 5.078125 35.984375 Z M 5.078125 11.015625 "/>
</clipPath>
<clipPath id="clip4">
  <path d="M 5.078125 8.8125 L 51.847656 8.8125 L 51.847656 38.1875 L 5.078125 38.1875 Z M 5.078125 8.8125 "/>
</clipPath>
<clipPath id="clip5">
  <path d="M 15 24 L 51.847656 24 L 51.847656 38 L 15 38 Z M 15 24 "/>
</clipPath>
<clipPath id="clip6">
  <path d="M 51.703125 24.859375 C 51.703125 24.859375 39.023438 33.855469 15.785156 37.855469 L 51.703125 37.855469 L 51.703125 24.859375 "/>
</clipPath>
<clipPath id="clip7">
  <path d="M 5.078125 8.8125 L 51.847656 8.8125 L 51.847656 38.1875 L 5.078125 38.1875 Z M 5.078125 8.8125 "/>
</clipPath>
<clipPath id="clip8">
  <path d="M 5.078125 11.015625 C 5.078125 9.804688 6.066406 8.8125 7.269531 8.8125 L 49.65625 8.8125 C 50.863281 8.8125 51.847656 9.804688 51.847656 11.015625 L 51.847656 35.984375 C 51.847656 37.195312 50.863281 38.1875 49.65625 38.1875 L 7.269531 38.1875 C 6.066406 38.1875 5.078125 37.195312 5.078125 35.984375 Z M 5.078125 11.015625 "/>
</clipPath>
<clipPath id="clip9">
  <path d="M 7 17 L 13 17 L 13 25 L 7 25 Z M 7 17 "/>
</clipPath>
<clipPath id="clip10">
  <path d="M 9.097656 17.515625 L 7.160156 17.515625 L 7.160156 24.269531 L 9.0625 24.269531 C 10.085938 24.269531 10.816406 24.015625 11.472656 23.5 C 12.242188 22.875 12.679688 21.882812 12.679688 20.894531 C 12.714844 18.910156 11.21875 17.515625 9.097656 17.515625 Z M 10.632812 22.582031 C 10.230469 22.949219 9.683594 23.132812 8.84375 23.132812 L 8.476562 23.132812 L 8.476562 18.652344 L 8.84375 18.652344 C 9.683594 18.652344 10.195312 18.800781 10.632812 19.203125 C 11.070312 19.609375 11.363281 20.230469 11.363281 20.894531 C 11.363281 21.554688 11.070312 22.179688 10.632812 22.582031 Z M 10.632812 22.582031 "/>
</clipPath>
<clipPath id="clip11">
  <path d="M 13.445312 17.515625 L 14.761719 17.515625 L 14.761719 24.269531 L 13.445312 24.269531 Z M 13.445312 17.515625 "/>
</clipPath>
<clipPath id="clip12">
  <path d="M 15 17 L 20 17 L 20 25 L 15 25 Z M 15 17 "/>
</clipPath>
<clipPath id="clip13">
  <path d="M 17.976562 20.230469 C 17.171875 19.9375 16.953125 19.753906 16.953125 19.386719 C 16.953125 18.945312 17.355469 18.652344 17.941406 18.652344 C 18.34375 18.652344 18.671875 18.800781 19 19.203125 L 19.695312 18.285156 C 19.144531 17.773438 18.453125 17.550781 17.722656 17.550781 C 16.515625 17.550781 15.636719 18.394531 15.636719 19.496094 C 15.636719 20.414062 16.078125 20.894531 17.28125 21.371094 C 17.792969 21.554688 18.050781 21.664062 18.195312 21.773438 C 18.453125 21.957031 18.597656 22.179688 18.597656 22.472656 C 18.597656 23.023438 18.160156 23.425781 17.574219 23.425781 C 16.953125 23.425781 16.441406 23.097656 16.148438 22.507812 L 15.308594 23.316406 C 15.929688 24.199219 16.625 24.601562 17.648438 24.601562 C 19 24.601562 19.988281 23.683594 19.988281 22.363281 C 19.914062 21.261719 19.476562 20.78125 17.976562 20.230469 "/>
</clipPath>
<clipPath id="clip14">
  <path d="M 20 17 L 26 17 L 26 25 L 20 25 Z M 20 17 "/>
</clipPath>
<clipPath id="clip15">
  <path d="M 20.242188 20.78125 C 20.242188 22.765625 21.8125 24.308594 23.785156 24.308594 C 24.335938 24.308594 24.847656 24.199219 25.429688 23.902344 L 25.429688 22.363281 C 24.917969 22.875 24.445312 23.097656 23.859375 23.097656 C 22.542969 23.097656 21.59375 22.140625 21.59375 20.78125 C 21.59375 19.496094 22.542969 18.46875 23.785156 18.46875 C 24.40625 18.46875 24.882812 18.691406 25.429688 19.242188 L 25.429688 17.699219 C 24.847656 17.367188 24.371094 17.257812 23.824219 17.257812 C 21.8125 17.257812 20.242188 18.835938 20.242188 20.78125 "/>
</clipPath>
<clipPath id="clip16">
  <path d="M 32 17 L 40 17 L 40 25 L 32 25 Z M 32 17 "/>
</clipPath>
<clipPath id="clip17">
  <path d="M 35.992188 22.066406 L 34.199219 17.515625 L 32.773438 17.515625 L 35.625 24.453125 L 36.320312 24.453125 L 39.242188 17.515625 L 37.816406 17.515625 L 35.992188 22.066406 "/>
</clipPath>
<clipPath id="clip18">
  <path d="M 39.828125 17.515625 L 43.554688 17.515625 L 43.554688 18.652344 L 39.828125 18.652344 Z M 39.828125 18.652344 L 41.140625 18.652344 L 41.140625 20.160156 L 39.828125 20.160156 Z M 39.828125 20.160156 L 43.445312 20.160156 L 43.445312 21.296875 L 39.828125 21.296875 Z M 39.828125 21.296875 L 41.140625 21.296875 L 41.140625 23.132812 L 39.828125 23.132812 Z M 39.828125 23.132812 L 43.554688 23.132812 L 43.554688 24.269531 L 39.828125 24.269531 Z M 39.828125 23.132812 "/>
</clipPath>
<clipPath id="clip19">
  <path d="M 44 17 L 50 17 L 50 25 L 44 25 Z M 44 17 "/>
</clipPath>
<clipPath id="clip20">
  <path d="M 48.851562 19.496094 C 48.851562 18.25 47.976562 17.515625 46.476562 17.515625 L 44.539062 17.515625 L 44.539062 24.269531 L 45.855469 24.269531 L 45.855469 21.554688 L 46.039062 21.554688 L 47.867188 24.269531 L 49.472656 24.269531 L 47.355469 21.40625 C 48.304688 21.222656 48.851562 20.527344 48.851562 19.496094 Z M 46.222656 20.636719 L 45.855469 20.636719 L 45.855469 18.578125 L 46.257812 18.578125 C 47.0625 18.578125 47.5 18.910156 47.5 19.570312 C 47.5 20.269531 47.0625 20.636719 46.222656 20.636719 Z M 46.222656 20.636719 "/>
</clipPath>
<clipPath id="clip21">
  <path d="M 25 17 L 33 17 L 33 25 L 25 25 Z M 25 17 "/>
</clipPath>
<clipPath id="clip22">
  <path d="M 32.996094 20.78125 C 32.996094 22.730469 31.421875 24.308594 29.488281 24.308594 C 27.550781 24.308594 25.980469 22.730469 25.980469 20.78125 C 25.980469 18.835938 27.550781 17.257812 29.488281 17.257812 C 31.421875 17.257812 32.996094 18.835938 32.996094 20.78125 "/>
</clipPath>
<clipPath id="clip23">
  <path d="M 49 17 L 50 17 L 50 19 L 49 19 Z M 49 17 "/>
</clipPath>
<clipPath id="clip24">
  <path d="M 49.65625 17.699219 C 49.65625 17.589844 49.582031 17.515625 49.4375 17.515625 L 49.253906 17.515625 L 49.253906 18.140625 L 49.398438 18.140625 L 49.398438 17.882812 L 49.582031 18.140625 L 49.765625 18.140625 L 49.546875 17.882812 C 49.621094 17.84375 49.65625 17.808594 49.65625 17.699219 Z M 49.398438 17.808594 L 49.363281 17.660156 L 49.398438 17.660156 C 49.472656 17.660156 49.507812 17.699219 49.507812 17.734375 C 49.507812 17.773438 49.472656 17.808594 49.398438 17.808594 Z M 49.398438 17.808594 "/>
</clipPath>
<clipPath id="clip25">
  <path d="M 48 17 L 51 17 L 51 19 L 48 19 Z M 48 17 "/>
</clipPath>
<clipPath id="clip26">
  <path d="M 49.507812 17.257812 C 49.21875 17.257812 48.960938 17.515625 48.960938 17.808594 C 48.960938 18.101562 49.21875 18.359375 49.507812 18.359375 C 49.800781 18.359375 50.058594 18.101562 50.058594 17.808594 C 50.058594 17.515625 49.800781 17.257812 49.507812 17.257812 Z M 49.507812 18.25 C 49.253906 18.25 49.070312 18.066406 49.070312 17.808594 C 49.070312 17.550781 49.253906 17.367188 49.507812 17.367188 C 49.730469 17.367188 49.949219 17.589844 49.949219 17.808594 C 49.949219 18.027344 49.765625 18.25 49.507812 18.25 Z M 49.507812 18.25 "/>
</clipPath>
<clipPath id="clip3">
  <rect x="0" y="0" width="57" height="47"/>
</clipPath>
<g id="surface5" clip-path="url(#clip3)">
<g clip-path="url(#clip4)" clip-rule="nonzero">
<path style=" stroke:none;fill-rule:nonzero;fill:rgb(100%,100%,100%);fill-opacity:1;" d="M 3.25 6.976562 L 53.675781 6.976562 L 53.675781 40.023438 L 3.25 40.023438 Z M 3.25 6.976562 "/>
</g>
<g clip-path="url(#clip5)" clip-rule="nonzero">
<g clip-path="url(#clip6)" clip-rule="nonzero">
<path style=" stroke:none;fill-rule:nonzero;fill:rgb(90.196078%,46.666667%,18.431373%);fill-opacity:1;" d="M 13.957031 23.023438 L 53.527344 23.023438 L 53.527344 39.691406 L 13.957031 39.691406 Z M 13.957031 23.023438 "/>
</g>
</g>
<g clip-path="url(#clip7)" clip-rule="nonzero">
<g clip-path="url(#clip8)" clip-rule="nonzero">
<path style="fill:none;stroke-width:2;stroke-linecap:butt;stroke-linejoin:miter;stroke:rgb(79.607843%,79.607843%,79.607843%);stroke-opacity:1;stroke-miterlimit:10;" d="M 13.898026 30 C 13.898026 26.702128 16.602796 24 19.895559 24 L 135.901316 24 C 139.20477 24 141.898849 26.702128 141.898849 30 L 141.898849 98 C 141.898849 101.297872 139.20477 104 135.901316 104 L 19.895559 104 C 16.602796 104 13.898026 101.297872 13.898026 98 Z M 13.898026 30 " transform="matrix(0.365385,0,0,0.367188,0,0)"/>
</g>
</g>
<g clip-path="url(#clip9)" clip-rule="nonzero">
<g clip-path="url(#clip10)" clip-rule="nonzero">
<path style=" stroke:none;fill-rule:nonzero;fill:rgb(10.196078%,9.803922%,9.803922%);fill-opacity:1;" d="M 5.335938 15.679688 L 14.542969 15.679688 L 14.542969 26.105469 L 5.335938 26.105469 Z M 5.335938 15.679688 "/>
</g>
</g>
<g clip-path="url(#clip11)" clip-rule="nonzero">
<path style=" stroke:none;fill-rule:nonzero;fill:rgb(10.196078%,9.803922%,9.803922%);fill-opacity:1;" d="M 11.621094 15.679688 L 16.589844 15.679688 L 16.589844 26.105469 L 11.621094 26.105469 Z M 11.621094 15.679688 "/>
</g>
<g clip-path="url(#clip12)" clip-rule="nonzero">
<g clip-path="url(#clip13)" clip-rule="nonzero">
<path style=" stroke:none;fill-rule:nonzero;fill:rgb(10.196078%,9.803922%,9.803922%);fill-opacity:1;" d="M 13.445312 15.679688 L 21.742188 15.679688 L 21.742188 26.402344 L 13.445312 26.402344 Z M 13.445312 15.679688 "/>
</g>
</g>
<g clip-path="url(#clip14)" clip-rule="nonzero">
<g clip-path="url(#clip15)" clip-rule="nonzero">
<path style=" stroke:none;fill-rule:nonzero;fill:rgb(10.196078%,9.803922%,9.803922%);fill-opacity:1;" d="M 18.414062 15.421875 L 27.257812 15.421875 L 27.257812 26.144531 L 18.414062 26.144531 Z M 18.414062 15.421875 "/>
</g>
</g>
<g clip-path="url(#clip16)" clip-rule="nonzero">
<g clip-path="url(#clip17)" clip-rule="nonzero">
<path style=" stroke:none;fill-rule:nonzero;fill:rgb(10.196078%,9.803922%,9.803922%);fill-opacity:1;" d="M 30.949219 15.679688 L 41.070312 15.679688 L 41.070312 26.289062 L 30.949219 26.289062 Z M 30.949219 15.679688 "/>
</g>
</g>
<g clip-path="url(#clip18)" clip-rule="nonzero">
<path style=" stroke:none;fill-rule:nonzero;fill:rgb(10.196078%,9.803922%,9.803922%);fill-opacity:1;" d="M 38 15.679688 L 45.378906 15.679688 L 45.378906 26.105469 L 38 26.105469 Z M 38 15.679688 "/>
</g>
<g clip-path="url(#clip19)" clip-rule="nonzero">
<g clip-path="url(#clip20)" clip-rule="nonzero">
<path style=" stroke:none;fill-rule:nonzero;fill:rgb(10.196078%,9.803922%,9.803922%);fill-opacity:1;" d="M 42.714844 15.679688 L 51.261719 15.679688 L 51.261719 26.105469 L 42.714844 26.105469 Z M 42.714844 15.679688 "/>
</g>
</g>
<g clip-path="url(#clip21)" clip-rule="nonzero">
<g clip-path="url(#clip22)" clip-rule="nonzero">
<path style=" stroke:none;fill-rule:nonzero;fill:rgb(90.196078%,46.666667%,18.431373%);fill-opacity:1;" d="M 24.152344 15.421875 L 34.820312 15.421875 L 34.820312 26.144531 L 24.152344 26.144531 Z M 24.152344 15.421875 "/>
</g>
</g>
<g clip-path="url(#clip23)" clip-rule="nonzero">
<g clip-path="url(#clip24)" clip-rule="nonzero">
<path style=" stroke:none;fill-rule:nonzero;fill:rgb(10.196078%,9.803922%,9.803922%);fill-opacity:1;" d="M 47.390625 15.679688 L 51.554688 15.679688 L 51.554688 19.976562 L 47.390625 19.976562 Z M 47.390625 15.679688 "/>
</g>
</g>
<g clip-path="url(#clip25)" clip-rule="nonzero">
<g clip-path="url(#clip26)" clip-rule="nonzero">
<path style=" stroke:none;fill-rule:nonzero;fill:rgb(10.196078%,9.803922%,9.803922%);fill-opacity:1;" d="M 47.132812 15.421875 L 51.882812 15.421875 L 51.882812 20.195312 L 47.132812 20.195312 Z M 47.132812 15.421875 "/>
</g>
</g>
</g>
</defs>
<g id="surface1">
<g clip-path="url(#clip1)" clip-rule="nonzero">
<g clip-path="url(#clip2)" clip-rule="nonzero">
<use xlink:href="#surface5"/>
</g>
</g>
</g>
</svg>
