<?xml version="1.0" encoding="UTF-8"?>
<svg xmlns="http://www.w3.org/2000/svg" xmlns:xlink="http://www.w3.org/1999/xlink" width="66px" height="47px" viewBox="0 0 66 47" version="1.1">
<g id="surface1">
<path style=" stroke:none;fill-rule:nonzero;fill:rgb(100%,37.254902%,0%);fill-opacity:1;" d="M 26.09375 11.183594 L 39.699219 11.183594 L 39.699219 35.816406 L 26.09375 35.816406 Z M 26.09375 11.183594 "/>
<path style=" stroke:none;fill-rule:nonzero;fill:rgb(92.156863%,0%,10.588235%);fill-opacity:1;" d="M 26.957031 23.5 C 26.953125 18.691406 29.144531 14.152344 32.898438 11.183594 C 26.523438 6.132812 17.367188 6.867188 11.863281 12.871094 C 6.363281 18.871094 6.363281 28.128906 11.863281 34.128906 C 17.367188 40.132812 26.523438 40.867188 32.898438 35.816406 C 29.144531 32.847656 26.953125 28.308594 26.957031 23.5 Z M 26.957031 23.5 "/>
<path style=" stroke:none;fill-rule:nonzero;fill:rgb(96.862745%,61.960784%,10.588235%);fill-opacity:1;" d="M 58.054688 23.5 C 58.054688 29.496094 54.65625 34.96875 49.300781 37.589844 C 43.949219 40.210938 37.578125 39.523438 32.898438 35.816406 C 36.648438 32.847656 38.835938 28.304688 38.835938 23.5 C 38.835938 18.695312 36.648438 14.152344 32.898438 11.183594 C 37.578125 7.476562 43.949219 6.789062 49.300781 9.410156 C 54.65625 12.03125 58.054688 17.503906 58.054688 23.5 Z M 58.054688 23.5 "/>
<path style=" stroke:none;fill-rule:nonzero;fill:rgb(96.862745%,61.960784%,10.588235%);fill-opacity:1;" d="M 56.570312 33.207031 L 56.570312 32.703125 L 56.773438 32.703125 L 56.773438 32.601562 L 56.257812 32.601562 L 56.257812 32.703125 L 56.460938 32.703125 L 56.460938 33.207031 Z M 57.570312 33.207031 L 57.570312 32.601562 L 57.414062 32.601562 L 57.230469 33.019531 L 57.050781 32.601562 L 56.890625 32.601562 L 56.890625 33.207031 L 57.003906 33.207031 L 57.003906 32.75 L 57.171875 33.144531 L 57.289062 33.144531 L 57.457031 32.75 L 57.457031 33.207031 Z M 57.570312 33.207031 "/>
</g>
</svg>
