<?xml version="1.0" encoding="UTF-8"?>
<svg xmlns="http://www.w3.org/2000/svg" xmlns:xlink="http://www.w3.org/1999/xlink" width="47px" height="47px" viewBox="0 0 47 47" version="1.1">
<g id="surface1">
<path style=" stroke:none;fill-rule:nonzero;fill:rgb(52.941176%,59.607843%,80%);fill-opacity:1;" d="M 44.394531 40.515625 L 2.605469 40.515625 C 1.167969 40.515625 0 39.351562 0 37.910156 L 0 9.089844 C 0 7.648438 1.167969 6.484375 2.605469 6.484375 L 44.394531 6.484375 C 45.832031 6.484375 47 7.648438 47 9.089844 L 47 37.910156 C 47 39.351562 45.832031 40.515625 44.394531 40.515625 "/>
<path style=" stroke:none;fill-rule:nonzero;fill:rgb(33.333333%,38.039216%,50.196078%);fill-opacity:1;" d="M 0 10.535156 L 47 10.535156 L 47 17.015625 L 0 17.015625 Z M 0 10.535156 "/>
<path style=" stroke:none;fill-rule:nonzero;fill:rgb(69.019608%,82.745098%,94.117647%);fill-opacity:1;" d="M 12.15625 21.070312 L 4.863281 21.070312 C 4.414062 21.070312 4.050781 21.433594 4.050781 21.878906 C 4.050781 22.328125 4.414062 22.691406 4.863281 22.691406 L 12.15625 22.691406 C 12.601562 22.691406 12.964844 22.328125 12.964844 21.878906 C 12.964844 21.433594 12.601562 21.070312 12.15625 21.070312 "/>
<path style=" stroke:none;fill-rule:nonzero;fill:rgb(69.019608%,82.745098%,94.117647%);fill-opacity:1;" d="M 23.5 21.878906 C 23.5 21.433594 23.136719 21.070312 22.691406 21.070312 L 15.398438 21.070312 C 14.949219 21.070312 14.585938 21.433594 14.585938 21.878906 C 14.585938 22.328125 14.949219 22.691406 15.398438 22.691406 L 22.691406 22.691406 C 23.136719 22.691406 23.5 22.328125 23.5 21.878906 "/>
<path style=" stroke:none;fill-rule:nonzero;fill:rgb(69.019608%,82.745098%,94.117647%);fill-opacity:1;" d="M 5.671875 25.121094 L 4.863281 25.121094 C 4.414062 25.121094 4.050781 25.484375 4.050781 25.929688 C 4.050781 26.378906 4.414062 26.742188 4.863281 26.742188 L 5.671875 26.742188 C 6.121094 26.742188 6.484375 26.378906 6.484375 25.929688 C 6.484375 25.484375 6.121094 25.121094 5.671875 25.121094 "/>
<path style=" stroke:none;fill-rule:nonzero;fill:rgb(69.019608%,82.745098%,94.117647%);fill-opacity:1;" d="M 10.535156 25.121094 L 8.914062 25.121094 C 8.464844 25.121094 8.101562 25.484375 8.101562 25.929688 C 8.101562 26.378906 8.464844 26.742188 8.914062 26.742188 L 10.535156 26.742188 C 10.984375 26.742188 11.34375 26.378906 11.34375 25.929688 C 11.34375 25.484375 10.984375 25.121094 10.535156 25.121094 "/>
<path style=" stroke:none;fill-rule:nonzero;fill:rgb(69.019608%,82.745098%,94.117647%);fill-opacity:1;" d="M 14.585938 25.121094 L 13.777344 25.121094 C 13.328125 25.121094 12.964844 25.484375 12.964844 25.929688 C 12.964844 26.378906 13.328125 26.742188 13.777344 26.742188 L 14.585938 26.742188 C 15.035156 26.742188 15.398438 26.378906 15.398438 25.929688 C 15.398438 25.484375 15.035156 25.121094 14.585938 25.121094 "/>
<path style=" stroke:none;fill-rule:nonzero;fill:rgb(69.019608%,82.745098%,94.117647%);fill-opacity:1;" d="M 19.449219 25.121094 L 17.828125 25.121094 C 17.378906 25.121094 17.015625 25.484375 17.015625 25.929688 C 17.015625 26.378906 17.378906 26.742188 17.828125 26.742188 L 19.449219 26.742188 C 19.894531 26.742188 20.257812 26.378906 20.257812 25.929688 C 20.257812 25.484375 19.894531 25.121094 19.449219 25.121094 "/>
<path style=" stroke:none;fill-rule:nonzero;fill:rgb(69.019608%,82.745098%,94.117647%);fill-opacity:1;" d="M 22.113281 25.355469 C 21.96875 25.507812 21.878906 25.71875 21.878906 25.929688 C 21.878906 26.140625 21.96875 26.351562 22.113281 26.507812 C 22.265625 26.652344 22.46875 26.742188 22.691406 26.742188 C 22.898438 26.742188 23.109375 26.652344 23.265625 26.507812 C 23.410156 26.351562 23.5 26.140625 23.5 25.929688 C 23.5 25.71875 23.410156 25.507812 23.265625 25.355469 C 22.964844 25.054688 22.414062 25.054688 22.113281 25.355469 "/>
<path style=" stroke:none;fill-rule:nonzero;fill:rgb(56.862745%,72.941176%,88.235294%);fill-opacity:1;" d="M 29.171875 27.550781 L 42.136719 27.550781 L 42.136719 35.65625 L 29.171875 35.65625 Z M 29.171875 27.550781 "/>
</g>
</svg>
